<svg width="39" height="38" viewBox="0 0 39 38" fill="none" xmlns="http://www.w3.org/2000/svg">
<path d="M34.6499 0.974998H18.8624C16.6874 0.974998 14.9249 2.7375 14.9249 4.9125V14.6625C14.0249 14.025 12.9374 13.65 11.7374 13.65C8.6249 13.65 6.1124 16.1625 6.1124 19.275V21.45H3.0749C1.8749 21.45 0.899902 22.425 0.899902 23.625V35.7375C0.899902 36.9375 1.8749 37.9125 3.0749 37.9125H20.3624C20.5124 37.9125 20.6999 37.9125 20.8499 37.8375H34.6874C36.8624 37.8375 38.6249 36.075 38.6249 33.9V4.95C38.6249 2.775 36.8624 1.0125 34.6874 1.0125L34.6499 0.974998ZM8.6624 19.3125C8.6624 17.625 10.0124 16.275 11.6999 16.275C13.3874 16.275 14.7374 17.625 14.7374 19.3125V21.4875H8.6999V19.3125H8.6624ZM19.9124 35.325H3.4874V24.075H19.9124V35.325ZM21.6374 23.4C21.4124 23.2125 21.3374 22.875 21.5249 22.65L21.9374 22.0875L21.2624 21.8625C20.9999 21.75 20.8499 21.45 20.9249 21.1875C21.0374 20.925 21.3374 20.775 21.5999 20.85L22.2749 21.075V20.4C22.2749 20.1 22.4999 19.875 22.7999 19.875C23.0999 19.875 23.3249 20.1 23.3249 20.4V21.075L23.9999 20.85C24.2999 20.775 24.5999 20.925 24.6749 21.225C24.7499 21.525 24.5999 21.825 24.2999 21.9L23.6249 22.125L24.0374 22.6875C24.2249 22.9125 24.1499 23.25 23.9249 23.4375C23.6999 23.625 23.3624 23.55 23.1749 23.325L22.7624 22.7625L22.3499 23.325C22.1624 23.55 21.8249 23.625 21.5999 23.4375L21.6374 23.4ZM24.7124 17.2125V18H21.4874V17.325L23.0999 15.825C23.2499 15.675 23.3624 15.5625 23.4374 15.45C23.5499 15.3375 23.5874 15.225 23.6624 15.15C23.6999 15.0375 23.7374 14.925 23.7374 14.8125C23.7374 14.7 23.7374 14.55 23.6624 14.475C23.5874 14.3625 23.5124 14.2875 23.3999 14.25C23.2874 14.2125 23.1749 14.175 23.0249 14.175C22.8749 14.175 22.7624 14.175 22.6499 14.25C22.5374 14.2875 22.4624 14.4 22.4249 14.475C22.3874 14.5875 22.3499 14.7 22.3499 14.85H21.4499C21.4499 14.55 21.5249 14.2875 21.6374 14.0625C21.7499 13.8375 21.9749 13.6875 22.1999 13.5375C22.4249 13.3875 22.7249 13.35 23.0249 13.35C23.3249 13.35 23.6249 13.425 23.8874 13.5375C24.1124 13.65 24.2999 13.8 24.4499 14.025C24.5999 14.2125 24.6374 14.475 24.6374 14.7375C24.6374 15 24.6374 15.075 24.5249 15.2625C24.4499 15.4125 24.3374 15.6 24.1499 15.825C23.9624 16.0125 23.7374 16.275 23.4374 16.5375L22.7624 17.175H24.6749L24.7124 17.2125ZM35.9624 33.9C35.9624 34.6125 35.3624 35.2125 34.6499 35.2125H22.4999V32.5875H35.9624V33.9ZM28.1999 15.3375V16.125H26.3624V18H25.3874V13.4625H28.3874V14.25H26.3624V15.3375H28.1999ZM26.0624 20.8875L26.7374 21.1125V20.4375C26.7374 20.1375 26.9624 19.9125 27.2624 19.9125C27.5624 19.9125 27.7874 20.1375 27.7874 20.4375V21.1125L28.4624 20.8875C28.7624 20.8125 29.0624 20.9625 29.1374 21.225C29.2124 21.525 29.0624 21.825 28.7999 21.9L28.1249 22.125L28.5374 22.6875C28.7249 22.9125 28.6499 23.25 28.4249 23.4375C28.1999 23.625 27.8624 23.55 27.6749 23.325L27.2624 22.7625L26.8499 23.325C26.6624 23.55 26.3249 23.625 26.0999 23.4375C25.8749 23.25 25.7999 22.9125 25.9874 22.6875L26.3999 22.125L25.7249 21.9C25.4624 21.7875 25.3124 21.4875 25.3874 21.225C25.4624 20.9625 25.7999 20.8125 26.0624 20.8875ZM33.0749 22.6875C33.2624 22.9125 33.1874 23.25 32.9624 23.4375C32.7374 23.625 32.3999 23.55 32.2124 23.325L31.7999 22.7625L31.3874 23.325C31.1999 23.55 30.8624 23.625 30.6374 23.4375C30.4124 23.25 30.3374 22.9125 30.5249 22.6875L30.9374 22.125L30.2624 21.9C29.9999 21.7875 29.8499 21.4875 29.9249 21.225C29.9999 20.9625 30.3374 20.8125 30.5999 20.8875L31.2749 21.1125V20.4375C31.2749 20.1375 31.4999 19.9125 31.7999 19.9125C32.0999 19.9125 32.3249 20.1375 32.3249 20.4375V21.1125L32.9999 20.8875C33.2999 20.8125 33.5999 20.9625 33.6749 21.2625C33.7499 21.5625 33.5999 21.8625 33.2999 21.9375L32.6249 22.1625L33.0374 22.725L33.0749 22.6875ZM32.1374 18L31.7999 16.95H30.1499L29.8124 18H28.7999L30.3749 13.4625H31.6124L33.1874 18H32.1749H32.1374ZM35.9624 6.2625H17.5124V4.95C17.5124 4.2375 18.1124 3.6375 18.8249 3.6375H34.6124C35.3249 3.6375 35.9249 4.2375 35.9249 4.95V6.2625H35.9624Z" fill="#2E69FF"/>
</svg>
