<svg width="43" height="37" viewBox="0 0 43 37" fill="none" xmlns="http://www.w3.org/2000/svg">
<path d="M25.8118 15.869C22.9003 15.869 20.5398 13.5085 20.5398 10.597C20.5398 7.68546 22.9003 5.32496 25.8118 5.32496C28.7233 5.32496 31.0838 7.68546 31.0838 10.597C31.0838 13.5085 28.7233 15.869 25.8118 15.869ZM25.8708 0.0629578C16.4573 0.0629578 8.82378 7.65846 8.74878 17.0545C12.5088 17.241 15.7673 19.4925 17.4123 22.691C19.3348 20.149 22.3748 18.505 25.8118 18.505H25.8708H25.9303C30.2448 18.505 33.9568 21.1015 35.5858 24.8235C35.8818 25.5345 36.1388 26.3835 36.1088 27.252C33.5028 29.908 29.8793 31.5565 25.8708 31.5565C23.1103 31.5565 20.5413 30.7605 18.3523 29.4055C18.1658 30.3375 17.8433 31.233 17.4133 32.0755C19.9103 33.4975 22.7923 34.321 25.8708 34.321C35.3313 34.321 42.9998 26.652 42.9998 17.192C42.9998 7.73196 35.3313 0.0629578 25.8708 0.0629578Z" fill="#FF3B84"/>
<path d="M11.1904 30.352C10.2819 30.342 9.54194 29.6115 9.54194 28.7035C9.54194 27.795 10.2819 27.0545 11.1904 27.0545C11.5179 27.0545 11.8219 27.1535 12.0789 27.319C12.3944 27.5225 12.6309 27.831 12.7499 28.194C12.8029 28.3555 12.8389 28.5245 12.8389 28.7035C12.8389 29.6115 12.0989 30.352 11.1904 30.352ZM5.25694 30.352C4.34894 30.342 3.60844 29.6115 3.60844 28.7035C3.60844 27.795 4.34894 27.0545 5.25694 27.0545C6.16544 27.0545 6.90544 27.795 6.90544 28.7035C6.90544 29.6115 6.16544 30.352 5.25694 30.352ZM16.0954 24.983C15.1219 21.8105 12.2709 19.447 8.86744 19.184C8.75944 19.176 8.65344 19.1605 8.54444 19.1565L8.55444 19.1365C5.71094 19.028 3.00594 20.4005 1.40644 22.76C-1.13056 26.5315 -0.143564 31.6455 3.62794 34.1925V35.6045C3.62794 36.325 4.21044 36.9175 4.94094 36.9175H5.60244C5.78044 36.9175 5.92844 36.769 5.92844 36.5915V34.617V34.5775C5.95794 34.222 6.26394 33.9455 6.62944 33.9655C6.98494 33.995 7.25144 34.291 7.25144 34.6465V36.6015C7.25144 36.779 7.39944 36.927 7.57694 36.927H8.88994C9.06794 36.927 9.21594 36.779 9.21594 36.6015V34.627V34.5875C9.24544 34.232 9.55144 33.9555 9.91694 33.9755C10.2724 34.005 10.5389 34.301 10.5389 34.6565V36.6115C10.5389 36.789 10.6869 36.937 10.8644 36.937H11.5259C12.2469 36.937 12.8389 36.3545 12.8389 35.624V34.212C14.0839 33.379 15.0439 32.234 15.6654 30.9255C16.0984 30.0135 16.3669 29.024 16.4389 27.9975C16.4619 27.6695 16.4699 27.3385 16.4524 27.005C16.4214 26.304 16.2934 25.6285 16.0954 24.983Z" fill="#FF3B84"/>
</svg>
