<svg width="137" height="68" viewBox="0 0 137 68" fill="none" xmlns="http://www.w3.org/2000/svg">
<g clip-path="url(#clip0_391_1723)">
<path d="M5.172 11.1564H38.0651L39.9538 0H7.06077L5.172 11.1564Z" fill="white"/>
<path d="M25.8407 14.6433H4.74949L2.86072 25.7985H23.952L25.8407 14.6433Z" fill="white"/>
<path d="M14.4578 28.9761H2.53391L0.645142 40.1324H12.569L14.4578 28.9761Z" fill="white"/>
<path d="M57.4063 0.0349121H46.5884L39.9729 40.0086H50.7908L57.4063 0.0349121Z" fill="white"/>
<path d="M83.1142 0.0349121H65.8364L59.2209 40.0086H77.9782C86.6153 40.0086 92.7639 35.2463 93.8544 28.6889C94.788 23.0681 91.2869 19.3205 86.1485 19.1644L86.2263 18.7741C90.9745 17.8363 94.6324 14.4021 95.4104 10.0301C96.4218 3.94102 92.2193 0.0373137 83.113 0.0373137V0.0349121H83.1142ZM82.6474 27.2828C82.2584 29.9377 80.1566 31.3426 76.5766 31.3426H71.5183L72.8409 22.9108H78.056C81.4026 22.9108 83.1142 24.4718 82.6474 27.2828ZM83.8922 12.3704C83.5032 14.7912 81.2446 16.1961 78.445 16.1961H74.0079L75.2527 8.54478H79.8442C82.4894 8.54478 84.2812 9.87163 83.891 12.3704H83.8922Z" fill="white"/>
<path d="M115.855 26.8145L120.66 40.0086H132.41L126.787 25.0962C131.359 23.0477 134.55 19.1632 135.444 13.6192C136.846 5.10937 131.788 0.0349121 122.915 0.0349121H105.716L99.1005 40.0086H109.918L112.117 26.8145H115.855ZM115.136 8.70208H118.949C122.685 8.70208 124.709 10.185 124.162 13.6204C123.617 17.0558 121.128 18.3827 117.314 18.3827H113.52L115.136 8.70208Z" fill="white"/>
<path d="M115.589 58.6676H115.58L114.016 58.3146C113.496 58.1885 113.12 58.03 112.887 57.8391C112.655 57.6482 112.538 57.396 112.538 57.085C112.538 56.7236 112.713 56.427 113.06 56.1952C113.407 55.9635 113.84 55.8482 114.354 55.8482C114.735 55.8482 115.054 55.9095 115.309 56.0343C115.566 56.1592 115.768 56.3177 115.919 56.5134C116.031 56.6599 116.121 56.81 116.186 56.9661C116.208 57.019 116.227 57.073 116.244 57.1282H118.127C118.111 57.037 118.095 56.9421 118.07 56.8413C118.023 56.6431 117.961 56.457 117.886 56.2793C117.665 55.7498 117.329 55.3247 116.865 54.9753C116.249 54.5106 115.404 54.2788 114.332 54.2788C113.588 54.2788 112.931 54.4001 112.358 54.6438C111.786 54.8876 111.338 55.2274 111.014 55.6633C110.692 56.0992 110.529 56.6083 110.529 57.1895C110.529 57.8883 110.747 58.4659 111.181 58.9222C111.616 59.3773 112.292 59.7075 113.209 59.9104L114.856 60.2731C115.315 60.3751 115.659 60.5264 115.883 60.727C116.107 60.9287 116.218 61.1796 116.218 61.4798C116.218 61.8437 116.037 62.1523 115.677 62.4044C115.315 62.6566 114.834 62.7827 114.23 62.7827C113.672 62.7827 113.22 62.6638 112.871 62.4236C112.522 62.1835 112.291 61.8293 112.177 61.3586H110.204C110.204 61.4474 110.209 61.5387 110.225 61.6275C110.301 62.0658 110.446 62.4549 110.661 62.7935C110.874 63.1321 111.157 63.4215 111.508 63.6616C112.211 64.1407 113.121 64.3797 114.241 64.3797C115.038 64.3797 115.739 64.2488 116.344 63.987C116.948 63.7241 117.422 63.3638 117.766 62.9051C118.11 62.4453 118.281 61.9181 118.281 61.3213C118.281 60.6285 118.059 60.0629 117.616 59.627C117.173 59.1912 116.497 58.8706 115.589 58.6664V58.6676Z" fill="white"/>
<path d="M120.277 64.3071V64.3083H122.321V54.4368H120.277V64.3071Z" fill="white"/>
<path d="M136.056 62.5131C135.991 62.5299 135.9 62.5491 135.783 62.5683C135.665 62.5875 135.528 62.5971 135.373 62.5971C135.164 62.5971 134.972 62.5647 134.797 62.5011C134.621 62.4374 134.478 62.3149 134.371 62.1336C134.262 61.9523 134.208 61.6845 134.208 61.3315V55.9749H136.252V54.3082H134.208V52.1288H132.164V54.3082H128.202V53.0126C128.202 52.5887 128.3 52.3521 128.497 52.1276C128.694 51.903 129.024 51.7902 129.487 51.7902C129.687 51.7902 129.857 51.807 130.002 51.8418C130.147 51.8766 130.265 51.9078 130.355 51.9379L130.816 50.3192C130.677 50.2676 130.465 50.2112 130.18 50.1487C129.894 50.0875 129.553 50.0551 129.154 50.0551C128.613 50.0551 128.115 50.1583 127.662 50.3661C127.207 50.5738 126.843 50.886 126.569 51.3051C126.295 51.7229 126.157 52.2188 126.157 52.8432V54.3082H124.113V55.9749H126.157V64.1797H128.202V55.9749H132.164V61.7193C132.168 62.3197 132.286 62.8193 132.562 63.2155C132.837 63.6118 133.201 63.9048 133.651 64.0945C134.101 64.2842 134.593 64.3755 135.127 64.3658C135.444 64.3574 135.71 64.3274 135.925 64.283C136.141 64.2386 136.335 64.1881 136.467 64.1485L136.058 62.5119H136.056V62.5131Z" fill="white"/>
<path d="M121.34 50.9424C120.671 50.9424 120.128 51.4863 120.128 52.1576C120.128 52.8288 120.671 53.3727 121.34 53.3727C122.009 53.3727 122.551 52.8288 122.551 52.1576C122.551 51.4863 122.009 50.9424 121.34 50.9424Z" fill="white"/>
<path d="M93.6376 62.4589C93.2438 62.8539 93.2438 63.4964 93.6376 63.8914C94.0314 64.2865 94.6718 64.2865 95.0656 63.8914C95.4594 63.4964 95.4594 62.8539 95.0656 62.4589C94.6718 62.0638 94.0314 62.0638 93.6376 62.4589Z" fill="white"/>
<path d="M100.033 53.9252C100.427 53.5302 100.427 52.8878 100.033 52.4927C99.6391 52.0976 98.9987 52.0976 98.6049 52.4927C98.2111 52.8878 98.2111 53.5302 98.6049 53.9252C98.9987 54.3203 99.6391 54.3203 100.033 53.9252Z" fill="white"/>
<path d="M92.0709 54.7066C91.7849 55.3058 91.5694 55.9446 91.439 56.6147C91.8136 56.79 92.272 56.7251 92.5808 56.4141C92.9746 56.0191 92.9746 55.3767 92.5808 54.9816C92.436 54.8363 92.2577 54.7439 92.0709 54.7054V54.7066Z" fill="white"/>
<path d="M91.4377 59.7681C91.5694 60.4369 91.7837 61.0769 92.0697 61.6761C92.2565 61.6377 92.4348 61.5464 92.5796 61.3999C92.9734 61.0049 92.9734 60.3625 92.5796 59.9674C92.2708 59.6576 91.8112 59.5916 91.4377 59.7669V59.7681Z" fill="white"/>
<path d="M97.5492 51.4328C97.858 51.123 97.9239 50.6619 97.7491 50.2872C97.0824 50.4193 96.4444 50.6343 95.8472 50.9212C95.8855 51.1086 95.9764 51.2863 96.1225 51.4328C96.5163 51.8278 97.1566 51.8278 97.5504 51.4328H97.5492Z" fill="white"/>
<path d="M98.6049 62.4589C98.2111 62.8539 98.2111 63.4964 98.6049 63.8914C98.9987 64.2865 99.6391 64.2865 100.033 63.8914C100.427 63.4964 100.427 62.8539 100.033 62.4589C99.6391 62.0638 98.9987 62.0638 98.6049 62.4589Z" fill="white"/>
<path d="M103.573 58.9091C103.967 59.3042 104.608 59.3042 105.001 58.9091C105.395 58.5141 105.395 57.8716 105.001 57.4766C104.608 57.0815 103.967 57.0815 103.573 57.4766C103.18 57.8716 103.18 58.5141 103.573 58.9091Z" fill="white"/>
<path d="M105 53.9252C105.394 53.5302 105.394 52.8878 105 52.4927C104.606 52.0976 103.966 52.0976 103.572 52.4927C103.179 52.8878 103.179 53.5302 103.572 53.9252C103.966 54.3203 104.606 54.3203 105 53.9252Z" fill="white"/>
<path d="M101.089 64.9505C100.78 65.2603 100.714 65.7214 100.889 66.0972C101.555 65.9651 102.193 65.7502 102.791 65.4632C102.752 65.2759 102.661 65.0982 102.515 64.9517C102.122 64.5566 101.481 64.5566 101.087 64.9517L101.089 64.9505Z" fill="white"/>
<path d="M98.6074 57.4796C98.2136 57.8747 98.2136 58.5171 98.6074 58.9122C99.0011 59.3072 99.6415 59.3072 100.035 58.9122C100.429 58.5171 100.429 57.8747 100.035 57.4796C99.6415 57.0846 99.0011 57.0846 98.6074 57.4796Z" fill="white"/>
<path d="M101.09 54.9856C100.696 55.3807 100.696 56.0231 101.09 56.4181C101.484 56.8132 102.124 56.8132 102.518 56.4181C102.912 56.0231 102.912 55.3807 102.518 54.9856C102.124 54.5906 101.484 54.5906 101.09 54.9856Z" fill="white"/>
<path d="M102.517 51.4317C102.661 51.2864 102.754 51.1075 102.792 50.9201C102.195 50.6332 101.558 50.417 100.89 50.2861C100.715 50.662 100.78 51.1219 101.09 51.4317C101.484 51.8267 102.124 51.8267 102.518 51.4317H102.517Z" fill="white"/>
<path d="M93.6376 57.4748C93.2438 57.8698 93.2438 58.5122 93.6376 58.9073C94.0314 59.3023 94.6718 59.3023 95.0656 58.9073C95.4594 58.5122 95.4594 57.8698 95.0656 57.4748C94.6718 57.0797 94.0314 57.0797 93.6376 57.4748Z" fill="white"/>
<path d="M101.09 59.9707C100.696 60.3658 100.696 61.0082 101.09 61.4032C101.484 61.7983 102.124 61.7983 102.518 61.4032C102.912 61.0082 102.912 60.3658 102.518 59.9707C102.124 59.5757 101.484 59.5757 101.09 59.9707Z" fill="white"/>
<path d="M96.1214 64.9517C95.9765 65.097 95.8844 65.2759 95.8461 65.4632C96.4433 65.7502 97.0801 65.9663 97.748 66.0972C97.9228 65.7214 97.8581 65.2615 97.5481 64.9517C97.1543 64.5566 96.514 64.5566 96.1202 64.9517H96.1214Z" fill="white"/>
<path d="M93.6389 52.4944C93.2451 52.8895 93.2451 53.5319 93.6389 53.9269C94.0326 54.322 94.673 54.322 95.0668 53.9269C95.4606 53.5319 95.4606 52.8895 95.0668 52.4944C94.673 52.0994 94.0326 52.0994 93.6389 52.4944Z" fill="white"/>
<path d="M106.057 54.9853C105.663 55.3804 105.663 56.0228 106.057 56.4178C106.366 56.7276 106.825 56.7937 107.199 56.6184C107.067 55.9495 106.853 55.3095 106.567 54.7103C106.38 54.7488 106.203 54.84 106.057 54.9865V54.9853Z" fill="white"/>
<path d="M106.057 59.9695C105.663 60.3645 105.663 61.0069 106.057 61.402C106.202 61.5473 106.38 61.6397 106.567 61.6782C106.853 61.079 107.068 60.4402 107.199 59.7701C106.824 59.5948 106.366 59.6597 106.057 59.9707V59.9695Z" fill="white"/>
<path d="M103.575 62.4619C103.181 62.857 103.181 63.4994 103.575 63.8945C103.968 64.2895 104.609 64.2895 105.003 63.8945C105.396 63.4994 105.396 62.857 105.003 62.4619C104.609 62.0669 103.968 62.0669 103.575 62.4619Z" fill="white"/>
<path d="M96.1225 54.9867C95.7287 55.3818 95.7287 56.0242 96.1225 56.4192C96.5163 56.8143 97.1566 56.8143 97.5504 56.4192C97.9442 56.0242 97.9442 55.3818 97.5504 54.9867C97.1566 54.5917 96.5163 54.5917 96.1225 54.9867Z" fill="white"/>
<path d="M96.1213 59.9678C95.7275 60.3629 95.7275 61.0053 96.1213 61.4003C96.5151 61.7954 97.1554 61.7954 97.5492 61.4003C97.943 61.0053 97.943 60.3629 97.5492 59.9678C97.1554 59.5727 96.5151 59.5727 96.1213 59.9678Z" fill="white"/>
<path d="M3.98102 55.8989C2.48365 55.8989 1.94383 56.8163 1.66374 57.317H1.53208V56.0046H0V67.1333H1.57038V62.8394H1.66374C1.94742 63.3557 2.52674 64.2575 3.99658 64.2575C5.95118 64.2575 7.36835 62.6869 7.36835 60.068C7.36835 57.4491 5.92963 55.9001 3.98102 55.9001V55.8989ZM3.64468 62.9126C2.29453 62.9126 1.53926 61.7527 1.53926 60.0512C1.53926 58.3497 2.27418 57.2378 3.64468 57.2378C5.01517 57.2378 5.78121 58.4446 5.78121 60.0512C5.78121 61.6578 5.04629 62.9126 3.64468 62.9126Z" fill="white"/>
<path d="M12.8432 55.8989C10.5678 55.8989 9.08118 57.5692 9.08118 60.0872C9.08118 62.6052 10.5678 64.2611 12.8432 64.2611C15.1185 64.2611 16.6051 62.5908 16.6051 60.0872C16.6051 57.5836 15.1185 55.8989 12.8432 55.8989ZM12.8479 62.9378C11.3613 62.9378 10.6683 61.6362 10.6683 60.0812C10.6683 58.5262 11.3613 57.215 12.8479 57.215C14.3345 57.215 15.0168 58.5322 15.0168 60.0812C15.0168 61.6302 14.3238 62.9378 12.8479 62.9378Z" fill="white"/>
<path d="M25.9424 61.9212H25.8646L24.2882 56.0038H22.6664L21.078 61.9476H20.9991L19.4191 56.0038H17.7972L20.1708 64.097H21.7663L23.4061 58.254H23.5258L25.1644 64.097H26.7671L29.1358 56.0038H27.514L25.9424 61.9212Z" fill="white"/>
<path d="M34.0637 55.8989C31.8158 55.8989 30.3352 57.616 30.3352 60.104C30.3352 62.592 31.7955 64.2611 34.175 64.2611C35.9357 64.2611 37.1793 63.3917 37.536 62.0745L36.0494 61.8055C35.7657 62.5692 35.0823 62.9595 34.1905 62.9595C32.8464 62.9595 31.9427 62.0841 31.902 60.5255H37.6377V59.9671C37.6377 57.0421 35.8926 55.8989 34.0649 55.8989H34.0637ZM31.9044 59.3451C31.969 58.196 32.7985 57.2006 34.0732 57.2006C35.348 57.2006 36.0901 58.1071 36.0973 59.3451H31.9044Z" fill="white"/>
<path d="M41.304 57.2895H41.219V56.0035H39.7013V64.0967H41.2717V59.1543C41.2717 58.0952 42.0856 57.3316 43.1999 57.3316C43.5255 57.3316 43.893 57.3892 44.0175 57.4264V55.9194C43.8619 55.899 43.5495 55.8834 43.352 55.8834C42.4064 55.8834 41.5972 56.4202 41.304 57.2895Z" fill="white"/>
<path d="M48.7645 55.8989C46.5154 55.8989 45.036 57.616 45.036 60.104C45.036 62.592 46.4951 64.2611 48.8758 64.2611C50.6341 64.2611 51.8801 63.3917 52.2368 62.0745L50.7502 61.8055C50.4665 62.5692 49.7831 62.9595 48.889 62.9595C47.5448 62.9595 46.6411 62.0841 46.6004 60.5255H52.3361V59.9671C52.3361 57.0421 50.591 55.8989 48.7645 55.8989ZM46.6052 59.3451C46.6674 58.196 47.4993 57.2006 48.774 57.2006C50.0488 57.2006 50.7909 58.1071 50.7957 59.3451H46.604H46.6052Z" fill="white"/>
<path d="M59.8469 57.3167H59.7511C59.4687 56.816 58.9312 55.8986 57.4315 55.8986C55.4805 55.8986 54.0477 57.4428 54.0477 60.0665C54.0477 62.6902 55.4601 64.256 57.4195 64.256C58.8905 64.256 59.4699 63.3542 59.7523 62.8379H59.884V64.0975H61.4173V53.3062H59.8469V57.3167ZM57.7678 62.9123C56.3638 62.9123 55.6325 61.6743 55.6325 60.0509C55.6325 58.4274 56.3482 57.2375 57.7678 57.2375C59.1874 57.2375 59.8732 58.359 59.8732 60.0509C59.8732 61.7428 59.1227 62.9123 57.7678 62.9123Z" fill="white"/>
<path d="M72.3023 55.8986C70.8049 55.8986 70.2651 56.816 69.985 57.3167H69.8892V53.3062H68.3188V64.0975H69.8521V62.8379H69.9838C70.2663 63.3542 70.8444 64.256 72.3166 64.256C74.27 64.256 75.6884 62.6854 75.6884 60.0665C75.6884 57.4476 74.2485 55.8986 72.3011 55.8986H72.3023ZM71.9659 62.9123C70.6146 62.9123 69.8593 61.7524 69.8593 60.0509C69.8593 58.3494 70.5942 57.2375 71.9659 57.2375C73.3376 57.2375 74.1036 58.4443 74.1036 60.0509C74.1036 61.6575 73.3675 62.9123 71.9659 62.9123Z" fill="white"/>
<path d="M80.6545 62.285H80.5695L78.5263 56.0038H76.8458L79.7987 64.2027L79.6048 64.7406C79.205 65.8153 78.6412 65.9041 77.7818 65.6676L77.4036 66.9584C77.5903 67.0425 78.0009 67.1325 78.4749 67.1325C79.7711 67.1325 80.5922 66.4529 81.0579 65.1777L84.3829 56.0038H82.6965L80.6533 62.285H80.6545Z" fill="white"/>
</g>
<defs>
<clipPath id="clip0_391_1723">
<rect width="136.467" height="67.1327" fill="white"/>
</clipPath>
</defs>
</svg>
