<?xml version="1.0" encoding="UTF-8"?>
<svg id="Account_opening_attacks_aided_by_Al" data-name="Account opening attacks aided by Al" xmlns="http://www.w3.org/2000/svg" version="1.1" viewBox="0 0 100 100">
  <rect width="100" height="100" fill="#fd4af9" opacity="0" stroke-width="0"/>
  <g>
    <path d="M86.75,28.75h-19.63c.47,1.59.73,3.26.73,5,0,9.67-7.84,17.5-17.5,17.5s-17.5-7.83-17.5-17.5c0-1.74.26-3.41.73-5H8.75v50.5c0,2.49,2.02,4.5,4.5,4.5h78v-50.5c0-2.48-2.01-4.5-4.5-4.5ZM79.81,67.36c-3.26,1.16-5.62,3.33-7.17,6.4-.21.43-.38.87-.55,1.31-.16.39-.15.96-.73.93-.48-.02-.53-.52-.66-.89-.78-2.22-2.04-4.08-3.81-5.52H16.6v-6h50.36c.36-.3.7-.62,1.03-.97,1.24-1.33,2.11-2.84,2.71-4.53.13-.36.17-.87.66-.89.49-.01.54.47.68.85,1.43,3.83,4.03,6.5,7.89,7.9.36.13.79.18.87.7-.1.52-.6.57-.99.71ZM83.71,58.13c-1.26.45-2.18,1.29-2.78,2.48-.08.16-.15.34-.21.51-.06.15-.06.37-.29.36-.18-.01-.2-.2-.25-.35-.38-1.06-1.03-1.92-2-2.51-.31-.19-.65-.34-.98-.5-.15-.07-.39-.07-.39-.27,0-.22.24-.26.41-.32.73-.27,1.37-.67,1.91-1.24.48-.52.82-1.11,1.05-1.76.05-.14.07-.34.26-.34.19-.01.21.18.26.32.55,1.49,1.56,2.52,3.06,3.07.14.05.31.07.34.27-.04.2-.24.22-.39.28Z" fill="#051273" stroke-width="0"/>
    <path d="M83.76,57.58c-1.5-.55-2.51-1.58-3.06-3.07-.05-.14-.07-.33-.26-.32-.19,0-.21.2-.26.34-.23.65-.57,1.24-1.05,1.76-.54.57-1.18.97-1.91,1.24-.17.06-.41.1-.41.32,0,.2.24.2.39.27.33.16.67.31.98.5.97.59,1.62,1.45,2,2.51.05.15.07.34.25.35.23.01.23-.21.29-.36.06-.17.13-.35.21-.51.6-1.19,1.52-2.03,2.78-2.48.15-.06.35-.08.39-.28-.03-.2-.2-.22-.34-.27Z" fill="#fff" stroke-width="0"/>
    <path d="M79.93,65.95c-3.86-1.4-6.46-4.07-7.89-7.9-.14-.38-.19-.86-.68-.85-.49.02-.53.53-.66.89-.6,1.69-1.47,3.2-2.71,4.53-.33.35-.67.67-1.03.97-1.16.98-2.46,1.71-3.9,2.25-.41.15-1.05.24-1.04.81.01.51.61.52.99.7.86.41,1.73.81,2.54,1.29.479.29.92.62,1.34.95,1.77,1.44,3.03,3.3,3.81,5.52.13.37.18.87.66.89.58.03.57-.54.73-.93.17-.44.34-.88.55-1.31,1.55-3.07,3.91-5.24,7.17-6.4.39-.14.89-.19.99-.71-.08-.52-.51-.57-.87-.7Z" fill="#fff" stroke-width="0"/>
    <path d="M50.35,51.25c9.66,0,17.5-7.83,17.5-17.5,0-1.74-.26-3.41-.73-5h-7.84c-.15.28-.43.47-.77.47s-.62-.19-.78-.47h-4.54c1.29.9,2.14,2.4,2.14,4.1,0,2.75-2.23,4.98-4.98,4.98s-4.99-2.23-4.99-4.98c0-1.7.85-3.2,2.15-4.1h-5.78c-2.1,3.62-1.77,8.32,1.16,11.62.74-1.05,1.68-1.94,2.78-2.61,2.61,2.51,6.74,2.51,9.36,0,1.09.67,2.04,1.56,2.771,2.61,1.63-1.82,2.52-4.18,2.52-6.62,0-.52-.04-1.05-.12-1.57-.01-.01-.01-.02-.01-.02-.07-.49.28-.94.76-1.01h.02c.48-.08.94.26,1.02.74.1.62.15,1.24.14,1.86.01,3.31-1.38,6.47-3.83,8.69l-.14.14c-4.46,3.94-11.16,3.94-15.62,0l-.15-.14c-2.43-2.23-3.82-5.38-3.82-8.68,0-1.79.41-3.49,1.12-5.01h-6.11c-.47,1.59-.73,3.26-.73,5,0,9.67,7.83,17.5,17.5,17.5Z" fill="#2c67ff" stroke-width="0"/>
    <path d="M50.35,21.97c.62,0,1.24.04,1.86.14.47.09.8.54.73,1.02-.06.5-.52.84-1.02.78-.52-.09-1.04-.13-1.57-.13-2.44,0-4.79.9-6.62,2.51-.82.73-1.48,1.56-2,2.46h5.78c.81-.56,1.78-.89,2.84-.89,1.05,0,2.03.33,2.84.89h4.54c-.07-.13-.13-.27-.13-.44v-1.81h-1.81c-.5,0-.91-.41-.91-.91s.41-.9.91-.9h1.81v-1.82c0-.5.41-.9.91-.9s.9.4.9.9v1.82h1.82c.5,0,.9.4.9.9s-.4.91-.9.91h-1.82v1.81c0,.17-.05.31-.13.44h7.84c-2.16-7.22-8.84-12.5-16.77-12.5s-14.61,5.28-16.77,12.5h6.11c1.88-4,5.94-6.78,10.66-6.78Z" fill="#2ac7b8" stroke-width="0"/>
    <path d="M63.01,67.35c-.38-.18-.98-.19-.99-.7-.01-.57.63-.66,1.04-.81,1.44-.54,2.74-1.27,3.9-2.25H16.6v6h50.29c-.42-.33-.86-.66-1.34-.95-.81-.48-1.68-.88-2.54-1.29Z" fill="#2c67ff" stroke-width="0"/>
    <path d="M59.41,26.5h1.82c.5,0,.9-.41.9-.91s-.4-.9-.9-.9h-1.82v-1.82c0-.5-.4-.9-.9-.9s-.91.4-.91.9v1.82h-1.81c-.5,0-.91.4-.91.9s.41.91.91.91h1.81v1.81c0,.17.06.31.13.44.16.28.44.47.78.47s.62-.19.77-.47c.08-.13.13-.27.13-.44v-1.81Z" fill="#fff" stroke-width="0"/>
    <path d="M47.51,28.75c-1.3.9-2.15,2.4-2.15,4.1,0,2.75,2.23,4.98,4.99,4.98s4.98-2.23,4.98-4.98c0-1.7-.85-3.2-2.14-4.1-.81-.56-1.79-.89-2.84-.89-1.06,0-2.03.33-2.84.89Z" fill="#fff" stroke-width="0"/>
    <path d="M43.73,26.29c1.83-1.61,4.18-2.51,6.62-2.51.53,0,1.05.04,1.57.13.5.06.96-.28,1.02-.78.07-.48-.26-.93-.73-1.02-.62-.1-1.24-.14-1.86-.14-4.72,0-8.78,2.78-10.66,6.78-.71,1.52-1.12,3.22-1.12,5.01,0,3.3,1.39,6.45,3.82,8.68l.15.14c4.46,3.94,11.16,3.94,15.62,0l.14-.14c2.45-2.22,3.84-5.38,3.83-8.69.01-.62-.04-1.24-.14-1.86-.08-.48-.54-.82-1.02-.74h-.02c-.48.07-.83.52-.76,1.01,0,0,0,.01.01.02.08.52.12,1.05.12,1.57,0,2.44-.89,4.8-2.52,6.62-.73-1.05-1.68-1.94-2.771-2.61-2.62,2.51-6.75,2.51-9.36,0-1.1.67-2.04,1.56-2.78,2.61-2.93-3.3-3.26-8-1.16-11.62.52-.9,1.18-1.73,2-2.46Z" fill="#fff" stroke-width="0"/>
  </g>
</svg>