<?xml version="1.0" encoding="UTF-8"?>
<svg id="Al_Fraud" data-name="Al Fraud" xmlns="http://www.w3.org/2000/svg" version="1.1" viewBox="0 0 100 100">
  <rect x="-.002" width="100" height="100" fill="#fd4af9" opacity="0" stroke-width="0"/>
  <g>
    <path d="M91.252,78.752H.002v2.5c0,1.38,1.12,2.5,2.5,2.5h95c1.38,0,2.5-1.12,2.5-2.5v-2.5h-8.75Z" fill="#2ac7b8" stroke-width="0"/>
    <path d="M82.102,54.732c-1.49-.55-2.5-1.58-3.06-3.07-.05-.14-.07-.33-.26-.33-.19.01-.21.21-.26.34-.23.66-.57,1.25-1.05,1.76-.54.58-1.18.979-1.91,1.25-.16.06-.41.1-.41.32.01.2.24.2.39.27.33.16.67.31.98.5.98.59,1.63,1.44,2.01,2.51.05.14.06.34.25.35.23.01.22-.21.28-.36.07-.17.13-.35.22-.51.6-1.19,1.51-2.03,2.78-2.49.15-.05.34-.07.38-.27-.03-.2-.2-.22-.34-.27Z" fill="#fff" stroke-width="0"/>
    <path d="M78.272,63.102c-1.47-.53-2.75-1.25-3.86-2.14-.08-.07-.15-.15-.23-.22-1.69-1.43-2.95-3.27-3.79-5.54-.14-.38-.19-.86-.68-.85-.49.02-.54.52-.66.88-.6,1.7-1.47,3.21-2.71,4.54-.33.35-.68.67-1.04.97-1.15.98-2.45,1.7-3.89,2.24-.42.16-1.06.25-1.05.82.01.51.61.52,1,.7.85.41,1.72.8,2.53,1.29.48.29.92.61,1.34.95,1.78,1.44,3.03,3.3,3.82,5.52.13.37.18.87.66.89.58.03.57-.54.72-.93.18-.44.34-.88.56-1.31.84-1.66,1.92-3.05,3.25-4.17.05-.04.11-.09.17-.14,1.09-.88,2.32-1.58,3.74-2.09.39-.14.89-.19,1-.71-.08-.52-.51-.57-.88-.7Z" fill="#fff" stroke-width="0"/>
    <path d="M74.412,60.742h-.23c.08.07.15.15.23.22v-.22Z" fill="#2c67ff" stroke-width="0"/>
    <path d="M74.412,66.742v-.14c-.06.05-.12.1-.17.14h.17Z" fill="#2c67ff" stroke-width="0"/>
    <path d="M50.362,23.692l-.01.02c.15.01.29.02.43.04h13.54c-3.13-4.5-8.31-7.46-14.2-7.5-5.99-.05-11.28,2.93-14.47,7.5h13.34c.45-.05.91-.08,1.37-.06Z" fill="#63c6bb" stroke-width="0"/>
    <path d="M61.362,64.502c-.39-.18-.99-.19-1-.7-.01-.57.63-.66,1.05-.82,1.44-.54,2.74-1.26,3.89-2.24H25.582v6h39.65c-.42-.34-.86-.66-1.34-.95-.81-.49-1.68-.88-2.53-1.29Z" fill="#2c67ff" stroke-width="0"/>
    <path d="M53.342,36.372c1.03,0,1.86-.84,1.86-1.87,0-1.02-.83-1.86-1.86-1.86-.72,0-1.34.42-1.65,1.02-.13.26-.21.54-.21.84,0,.31.08.59.21.85.31.6.93,1.01,1.65,1.02Z" fill="#2c67ff" stroke-width="0"/>
    <path d="M91.252,28.252c0-2.49-2.02-4.5-4.5-4.5h-22.43c.79,1.13,1.45,2.35,1.96,3.65.79,2,1.23,4.18,1.21,6.48-.07,9.66-7.96,17.44-17.62,17.37-9.67-.07-17.44-7.97-17.37-17.63.01-2.3.47-4.47,1.29-6.46.5-1.21,1.12-2.35,1.86-3.41H13.252c-2.49,0-4.5,2.01-4.5,4.5v50.5h82.5V28.252ZM78.152,64.512c-1.42.51-2.65,1.21-3.74,2.09v.14h-.17c-1.33,1.12-2.41,2.51-3.25,4.17-.22.43-.38.87-.56,1.31-.15.39-.14.96-.72.93-.48-.02-.53-.52-.66-.89-.79-2.22-2.04-4.08-3.82-5.52H25.582v-6h39.72c.36-.3.71-.62,1.04-.97,1.24-1.33,2.11-2.84,2.71-4.54.12-.36.17-.86.66-.88.49-.01.54.47.68.85.84,2.27,2.1,4.11,3.79,5.54h.23v.22c1.11.89,2.39,1.61,3.86,2.14.37.13.8.18.88.7-.11.52-.61.57-1,.71ZM82.062,55.272c-1.27.46-2.18,1.3-2.78,2.49-.09.16-.15.34-.22.51-.06.15-.05.37-.28.36-.19-.01-.2-.21-.25-.35-.38-1.07-1.03-1.92-2.01-2.51-.31-.19-.65-.34-.98-.5-.15-.07-.38-.07-.39-.27,0-.22.25-.26.41-.32.73-.271,1.37-.67,1.91-1.25.48-.51.82-1.1,1.05-1.76.05-.13.07-.33.26-.34.19,0,.21.19.26.33.56,1.49,1.57,2.521,3.06,3.07.14.05.31.07.34.27-.04.2-.23.22-.38.27Z" fill="#051273" stroke-width="0"/>
    <path d="M50.362,23.692c-.46-.02-.92.01-1.37.06-2.69.29-5.16,1.75-6.71,4.04-2.87,4.26-1.75,10.04,2.51,12.92v1.6c0,.81.66,1.48,1.49,1.48h.74c.2,0,.37-.17.37-.37v-2.27c.04-.41.38-.72.79-.7.41.04.71.37.71.77v2.21c0,.2.16.37.37.37h1.48c.2,0,.37-.17.37-.37v-2.271c.03-.4.38-.72.79-.7.4.04.7.37.7.77v2.21c0,.21.17.37.37.37h.75c.81,0,1.48-.66,1.48-1.48v-1.6c.05-.02.08-.06.12-.09,2.63-1.82,4.13-4.86,3.97-8.05-.19-4.36-3.43-7.94-7.6-8.72-.3-.05-.6-.09-.91-.12-.14-.02-.28-.03-.43-.04l.01-.02ZM46.632,36.372c-1.02-.01-1.86-.84-1.86-1.87,0-1.02.84-1.86,1.86-1.86,1.03,0,1.87.84,1.87,1.86,0,1.03-.84,1.87-1.87,1.87ZM51.692,33.662c.31-.6.93-1.02,1.65-1.02,1.03,0,1.86.84,1.86,1.86,0,1.03-.83,1.87-1.86,1.87-.72-.01-1.34-.42-1.65-1.02-.13-.26-.21-.54-.21-.85,0-.3.08-.58.21-.84Z" fill="#fff" stroke-width="0"/>
    <path d="M32.502,33.622c-.07,9.66,7.7,17.56,17.37,17.63,9.66.07,17.55-7.71,17.62-17.37.02-2.3-.42-4.48-1.21-6.48-.51-1.3-1.17-2.52-1.96-3.65h-13.54c.31.03.61.07.91.12,4.17.78,7.41,4.36,7.6,8.72.16,3.19-1.34,6.23-3.97,8.05-.04.03-.07.07-.12.09v1.6c0,.82-.67,1.48-1.48,1.48h-.75c-.2,0-.37-.16-.37-.37v-2.21c0-.4-.3-.73-.7-.77-.41-.02-.76.3-.79.7v2.271c0,.2-.17.37-.37.37h-1.48c-.21,0-.37-.17-.37-.37v-2.21c0-.4-.3-.73-.71-.77-.41-.02-.75.29-.79.7v2.27c0,.2-.17.37-.37.37h-.74c-.83,0-1.49-.67-1.49-1.48v-1.6c-4.26-2.88-5.38-8.66-2.51-12.92,1.55-2.29,4.021-3.75,6.71-4.04h-13.34c-.74,1.06-1.36,2.2-1.86,3.41-.82,1.99-1.28,4.16-1.29,6.46Z" fill="#2c67ff" stroke-width="0"/>
    <path d="M46.632,32.642c-1.02,0-1.86.84-1.86,1.86,0,1.03.84,1.86,1.86,1.87,1.03,0,1.87-.84,1.87-1.87,0-1.02-.84-1.86-1.87-1.86Z" fill="#2c67ff" stroke-width="0"/>
  </g>
</svg>