<?xml version="1.0" encoding="UTF-8"?>
<svg id="Account_takeover_attacks_aided_by_AI" data-name="Account takeoverattacks aided by AI" xmlns="http://www.w3.org/2000/svg" version="1.1" viewBox="0 0 100 100">
  <rect width="100" height="100" fill="#fd4af9" opacity="0" stroke-width="0"/>
  <g>
    <path d="M83.75,54.153c-1.49-.55-2.5-1.58-3.06-3.07-.05-.14-.07-.33-.26-.33-.19.01-.21.21-.26.34-.23.66-.57,1.25-1.05,1.76-.54.58-1.18.98-1.91,1.25-.16.06-.41.1-.41.32.01.2.24.2.39.27.33.16.67.31.98.5.98.59,1.63,1.44,2.01,2.51.05.14.06.34.25.35.23.01.22-.21.28-.36.07-.17.13-.35.22-.51.6-1.19,1.51-2.03,2.78-2.49.15-.05.34-.07.38-.27-.03-.2-.2-.22-.34-.27Z" fill="#fff" stroke-width="0"/>
    <path d="M79.92,62.523c-3.86-1.4-6.46-4.07-7.88-7.9-.14-.38-.19-.86-.68-.85-.49.02-.54.52-.66.88-.6,1.7-1.47,3.21-2.71,4.54-.33.35-.68.67-1.04.97-1.15.98-2.45,1.7-3.89,2.24-.42.16-1.06.25-1.05.82.01.51.61.52,1,.7.85.41,1.72.8,2.53,1.29.48.29.92.61,1.34.95,1.78,1.44,3.03,3.3,3.82,5.52.13.37.18.87.66.89.58.03.57-.54.72-.93.18-.44.34-.88.56-1.31,1.54-3.07,3.9-5.24,7.16-6.4.39-.14.89-.19,1-.71-.08-.52-.51-.57-.88-.7Z" fill="#fff" stroke-width="0"/>
    <path d="M42.63,24.363c1.81-2.67,4.86-4.22,8.08-4.1l-.01.02c.45.02.9.08,1.34.16,2.85.54,5.26,2.38,6.57,4.88h8.5c-2.15-7.23-8.84-12.5-16.77-12.5s-14.61,5.27-16.76,12.5h8.49c.17-.33.35-.65.56-.96Z" fill="#2ac7b8" stroke-width="0"/>
    <path d="M63.01,63.923c-.39-.18-.99-.19-1-.7-.01-.57.63-.66,1.05-.82,1.44-.54,2.74-1.26,3.89-2.24H16.59v6h50.29c-.42-.34-.86-.66-1.34-.95-.81-.49-1.68-.88-2.53-1.29Z" fill="#2c67ff" stroke-width="0"/>
    <path d="M53.69,29.213c-.72,0-1.34.42-1.65,1.02-.13.26-.21.54-.21.85,0,.3.08.59.21.84.31.6.93,1.01,1.65,1.02,1.03,0,1.86-.84,1.86-1.86,0-1.03-.83-1.87-1.86-1.87Z" fill="#2c67ff" stroke-width="0"/>
    <path d="M86.75,25.323h-19.64c.47,1.59.73,3.26.73,5,0,9.67-7.83,17.5-17.5,17.5s-17.5-7.83-17.5-17.5c0-1.74.27-3.41.74-5H8.75v50.5c0,2.49,2.01,4.5,4.5,4.5h78V29.823c0-2.48-2.02-4.5-4.5-4.5ZM79.8,63.933c-3.26,1.16-5.62,3.33-7.16,6.4-.22.43-.38.87-.56,1.31-.15.39-.14.96-.72.93-.48-.02-.53-.52-.66-.89-.79-2.22-2.04-4.08-3.82-5.52H16.59v-6h50.36c.36-.3.71-.62,1.04-.97,1.24-1.33,2.11-2.84,2.71-4.54.12-.36.17-.86.66-.88.49-.01.54.47.68.85,1.42,3.83,4.02,6.5,7.88,7.9.37.13.8.18.88.7-.11.52-.61.57-1,.71ZM83.71,54.693c-1.27.46-2.18,1.3-2.78,2.49-.09.16-.15.34-.22.51-.06.15-.05.37-.28.36-.19-.01-.2-.21-.25-.35-.38-1.07-1.03-1.92-2.01-2.51-.31-.19-.65-.34-.98-.5-.15-.07-.38-.07-.39-.27,0-.22.25-.26.41-.32.73-.27,1.37-.67,1.91-1.25.48-.51.82-1.1,1.05-1.76.05-.13.07-.33.26-.34.19,0,.21.19.26.33.56,1.49,1.57,2.52,3.06,3.07.14.05.31.07.34.27-.04.2-.23.22-.38.27Z" fill="#051273" stroke-width="0"/>
    <path d="M50.34,47.823c9.67,0,17.5-7.83,17.5-17.5,0-1.74-.26-3.41-.73-5h-8.5c.6,1.16.97,2.46,1.03,3.84.16,3.2-1.34,6.24-3.97,8.06-.04.03-.08.06-.12.09v1.59c0,.83-.67,1.49-1.479,1.49h-.75c-.2,0-.37-.17-.37-.37v-2.21c0-.4-.3-.74-.7-.77-.41-.02-.76.29-.79.69v2.28c0,.2-.17.36-.37.36h-1.49c-.2,0-.36-.16-.36-.36v-2.21c0-.4-.31-.74-.71-.77-.41-.03-.76.29-.79.69v2.28c0,.2-.17.36-.37.36h-.75c-.82,0-1.48-.67-1.48-1.48v-1.6c-3.95-2.66-5.19-7.82-3.07-11.96h-8.49c-.47,1.59-.74,3.26-.74,5,0,9.67,7.84,17.5,17.5,17.5Z" fill="#2c67ff" stroke-width="0"/>
    <path d="M46.98,29.213c-1.03,0-1.86.84-1.86,1.87,0,1.02.83,1.85,1.86,1.86,1.03,0,1.87-.84,1.87-1.86,0-1.03-.84-1.87-1.87-1.87Z" fill="#2c67ff" stroke-width="0"/>
    <path d="M52.04,20.443c-.44-.08-.89-.14-1.34-.16l.01-.02c-3.22-.12-6.27,1.43-8.08,4.1-.21.31-.39.63-.56.96-2.12,4.14-.88,9.3,3.07,11.96v1.6c0,.81.66,1.48,1.48,1.48h.75c.2,0,.37-.16.37-.36v-2.28c.03-.4.38-.72.79-.69.4.03.71.37.71.77v2.21c0,.2.16.36.36.36h1.49c.2,0,.37-.16.37-.36v-2.28c.03-.4.38-.71.79-.69.4.03.7.37.7.77v2.21c0,.2.17.37.37.37h.75c.81,0,1.479-.66,1.479-1.49v-1.59c.04-.03.08-.06.12-.09,2.63-1.82,4.13-4.86,3.97-8.06-.06-1.38-.43-2.68-1.03-3.84-1.31-2.5-3.72-4.34-6.57-4.88ZM46.98,32.943c-1.03-.01-1.86-.84-1.86-1.86,0-1.03.83-1.87,1.86-1.87s1.87.84,1.87,1.87c0,1.02-.84,1.86-1.87,1.86ZM53.69,32.943c-.72-.01-1.34-.42-1.65-1.02-.13-.25-.21-.54-.21-.84,0-.31.08-.59.21-.85.31-.6.93-1.02,1.65-1.02,1.03,0,1.86.84,1.86,1.87,0,1.02-.83,1.86-1.86,1.86Z" fill="#fff" stroke-width="0"/>
  </g>
</svg>