<?xml version="1.0" encoding="UTF-8"?>
<svg id="Blocked_Content" data-name="Blocked Content" xmlns="http://www.w3.org/2000/svg" version="1.1" viewBox="0 0 100 100">
  <rect width="100" height="100" fill="#fd4af9" opacity="0" stroke-width="0"/>
  <g>
    <path d="M86.25,50c0-4.59-.867-8.979-2.43-13.025v26.051c1.563-4.046,2.43-8.435,2.43-13.025Z" fill="none" stroke-width="0"/>
    <path d="M16.32,63.38v-26.76c-1.651,4.143-2.57,8.655-2.57,13.38s.918,9.237,2.57,13.38Z" fill="none" stroke-width="0"/>
    <path d="M79.168,79.168l-3.547-3.547c3.549-3.549,6.359-7.833,8.199-12.595v-26.051c-1.84-4.762-4.65-9.046-8.199-12.595l3.547-3.548h.001c1.709,1.711,3.261,3.577,4.65,5.563v-6.095c0-2.237-1.813-4.05-4.05-4.05H16.32v9.948c1.354-1.913,2.859-3.713,4.512-5.366l3.548,3.547c-3.461,3.461-6.217,7.621-8.06,12.241v26.76c1.842,4.62,4.599,8.78,8.06,12.241l-3.548,3.547-.004-.004c-1.651-1.652-3.154-3.451-4.508-5.362v5.898c0,2.237,1.813,4.05,4.05,4.05h63.45v-10.146c-1.387,1.984-2.937,3.848-4.643,5.555l-.009.009ZM32.402,67.598l-3.544,3.544c-5.411-5.411-8.757-12.885-8.757-21.142s3.346-15.731,8.757-21.142l3.544,3.544c-4.508,4.509-7.301,10.733-7.301,17.598s2.792,13.089,7.301,17.598ZM66.156,51.425l-6.844,11.854c-.509.881-1.45,1.424-2.468,1.424h-13.688c-1.018,0-1.958-.543-2.468-1.424l-6.844-11.854c-.509-.882-.509-1.968,0-2.85l6.844-11.854c.509-.882,1.45-1.425,2.468-1.425h13.688c1.018,0,1.959.543,2.468,1.425l6.844,11.854c.509.882.509,1.968,0,2.85ZM67.597,67.598c4.509-4.509,7.301-10.733,7.301-17.598s-2.792-13.089-7.301-17.598l3.544-3.543c5.411,5.41,8.757,12.885,8.757,21.141s-3.347,15.73-8.757,21.141l-3.544-3.543Z" fill="#051273" stroke-width="0"/>
    <path d="M13.75,50c0-4.725.918-9.237,2.57-13.38v-10.422c-4.762,6.726-7.57,14.933-7.57,23.802s2.808,17.076,7.57,23.802v-10.422c-1.651-4.143-2.57-8.655-2.57-13.38Z" fill="#36c9bb" stroke-width="0"/>
    <path d="M24.38,24.379l-3.548-3.547c-1.653,1.653-3.157,3.453-4.512,5.366v10.422c1.842-4.62,4.599-8.78,8.06-12.241Z" fill="#2c67ff" stroke-width="0"/>
    <path d="M20.832,79.168l3.548-3.547c-3.461-3.461-6.217-7.621-8.06-12.241v10.422c1.354,1.912,2.856,3.71,4.508,5.362l.004.004Z" fill="#2c67ff" stroke-width="0"/>
    <path d="M83.82,26.395v10.58c1.563,4.046,2.43,8.435,2.43,13.025s-.867,8.979-2.43,13.025v10.579c4.678-6.689,7.43-14.823,7.43-23.604s-2.752-16.916-7.43-23.605Z" fill="#36c9bb" stroke-width="0"/>
    <path d="M79.168,20.831l-3.547,3.548c3.549,3.549,6.359,7.833,8.199,12.595v-10.58c-1.389-1.987-2.941-3.853-4.65-5.562h-.001Z" fill="#2c67ff" stroke-width="0"/>
    <path d="M75.621,75.62l3.547,3.547.009-.009c1.707-1.708,3.256-3.571,4.643-5.555v-10.579c-1.84,4.762-4.65,9.046-8.199,12.595Z" fill="#2c67ff" stroke-width="0"/>
    <path d="M28.859,28.858c-5.411,5.411-8.757,12.885-8.757,21.142s3.346,15.731,8.757,21.142l3.544-3.544c-4.508-4.508-7.301-10.733-7.301-17.598s2.792-13.089,7.301-17.598l-3.544-3.544Z" fill="#2c67ff" stroke-width="0"/>
    <path d="M71.141,28.859l-3.544,3.543c4.509,4.509,7.301,10.733,7.301,17.598s-2.792,13.089-7.301,17.598l3.544,3.543c5.41-5.411,8.757-12.885,8.757-21.141s-3.346-15.731-8.757-21.141Z" fill="#2c67ff" stroke-width="0"/>
    <path d="M59.312,36.721c-.509-.882-1.45-1.425-2.468-1.425h-13.688c-1.018,0-1.958.543-2.468,1.425l-6.844,11.854c-.509.882-.509,1.968,0,2.85l6.844,11.854c.509.881,1.45,1.424,2.468,1.424h13.688c1.018,0,1.959-.543,2.468-1.424l6.844-11.854c.509-.882.509-1.968,0-2.85l-6.844-11.854ZM50.003,59.057c-5.002,0-9.059-4.057-9.059-9.059s4.057-9.059,9.059-9.059,9.059,4.057,9.059,9.059-4.057,9.059-9.059,9.059Z" fill="#fff" stroke-width="0"/>
    <path d="M50.003,40.939c-5.002,0-9.059,4.057-9.059,9.059s4.057,9.059,9.059,9.059,9.059-4.057,9.059-9.059-4.057-9.059-9.059-9.059ZM50.003,56.916c-3.814,0-6.918-3.104-6.918-6.918,0-1.43.434-2.765,1.179-3.866l9.605,9.605c-1.101.746-2.436,1.179-3.866,1.179ZM55.429,54.272l-9.701-9.709c1.179-.927,2.662-1.482,4.274-1.482,3.814,0,6.918,3.104,6.918,6.918,0,1.613-.563,3.095-1.491,4.274Z" fill="#051273" stroke-width="0"/>
    <path d="M43.085,49.998c0,3.814,3.104,6.918,6.918,6.918,1.43,0,2.765-.434,3.866-1.179l-9.605-9.605c-.745,1.101-1.179,2.436-1.179,3.866Z" fill="#fff" stroke-width="0"/>
    <path d="M50.003,43.08c-1.612,0-3.095.555-4.274,1.482l9.701,9.709c.928-1.179,1.491-2.661,1.491-4.274,0-3.814-3.104-6.918-6.918-6.918Z" fill="#fff" stroke-width="0"/>
  </g>
</svg>