<?xml version="1.0" encoding="UTF-8"?>
<svg id="Phishing-emails" xmlns="http://www.w3.org/2000/svg" version="1.1" viewBox="0 0 100 100">
  <rect width="100" height="100" fill="#eb51f4" opacity="0" stroke-width="0"/>
  <g>
    <path d="M53.75,72.23v-35.25h25v-8.896H8.75v51.135c0,2.502,2.016,4.53,4.5,4.53h65.5v-9.27h-22.75c-1.243,0-2.25-1.007-2.25-2.25ZM38.795,55.071h-22.585v-6h22.585v6ZM46.252,43.018h-30.042v-6h30.042v6Z" fill="#051273" stroke-width="0"/>
    <path d="M78.745,28.085h.094v-7.335c0-1.86-1.125-3.464-2.745-4.14-.541-.24-1.125-.36-1.755-.36H8.839v11.835h69.906ZM33.573,19.918c1.243,0,2.25,1.007,2.25,2.25s-1.007,2.25-2.25,2.25-2.25-1.008-2.25-2.25,1.008-2.25,2.25-2.25ZM24.324,20.769c.412-.515,1.039-.851,1.749-.851.466,0,.898.142,1.258.384.599.404.992,1.089.992,1.866s-.397,1.467-1.001,1.871c-.357.24-.787.379-1.249.379-.709,0-1.334-.334-1.746-.847-.311-.386-.504-.87-.504-1.403s.192-1.014.501-1.399ZM17.559,20.158c.301-.149.634-.24.991-.24.89,0,1.65.52,2.016,1.268.146.298.234.628.234.982,0,.355-.089.687-.235.986-.366.746-1.127,1.264-2.015,1.264-.353,0-.684-.088-.98-.234-.749-.365-1.27-1.127-1.27-2.016s.517-1.644,1.259-2.01Z" fill="#63c6bb" stroke-width="0"/>
    <path d="M17.57,24.184c.297.146.628.234.98.234.888,0,1.648-.519,2.015-1.264.146-.299.235-.63.235-.986,0-.354-.089-.684-.234-.982-.365-.749-1.126-1.268-2.016-1.268-.357,0-.69.091-.991.24-.742.367-1.259,1.125-1.259,2.01s.521,1.65,1.27,2.016Z" fill="#051273" stroke-width="0"/>
    <path d="M26.073,24.418c.462,0,.892-.14,1.249-.379.604-.403,1.001-1.09,1.001-1.871s-.394-1.462-.992-1.866c-.359-.242-.792-.384-1.258-.384-.71,0-1.337.336-1.749.851-.309.385-.501.867-.501,1.399s.193,1.017.504,1.403c.412.513,1.037.847,1.746.847Z" fill="#051273" stroke-width="0"/>
    <circle cx="33.573" cy="22.168" r="2.25" fill="#051273" stroke-width="0"/>
    <rect x="16.21" y="37.018" width="30.042" height="6" fill="#2c67ff" stroke-width="0"/>
    <rect x="16.21" y="49.071" width="22.585" height="6" fill="#2c67ff" stroke-width="0"/>
    <path d="M88.85,36.98h-10.1v7.809c1.208.448,2.216,1.392,2.689,2.685.789,2.159-.177,4.551-2.247,5.562-.174.085-.179.093-.177.293.021,1.922.02,3.844.008,5.767-.004.692-.103,1.363-.273,2.005v13.38h12.5v-35.1c0-1.326-1.075-2.4-2.4-2.4Z" fill="#63c6bb" stroke-width="0"/>
    <path d="M78.75,71.678v-10.578c-.816,3.067-3.406,5.432-6.647,5.812-.319.037-.638.056-.951.056-3.677,0-6.877-2.506-7.653-6.139-.23-1.083-.219-2.207-.207-3.294l.005-.599c.003-.959.787-1.693,1.825-1.709.895-.013,1.791-.014,2.689,0,1.001.018,1.77.752,1.827,1.747.058.981-.673,1.823-1.663,1.917-.331.03-.666.024-1.009.018-.033,1.028.289,2.01.928,2.8.737.912,1.808,1.467,3.014,1.564,1.099.079,2.168-.279,3.005-1.033.875-.786,1.395-1.927,1.425-3.127.031-1.225.026-2.45.021-3.676-.004-.772-.007-1.545,0-2.317-.012,0-.034-.008-.055-.018-1.795-.871-2.828-2.692-2.622-4.557.21-1.897,1.589-3.474,3.432-3.923.907-.22,1.817-.139,2.638.166v-7.809h-25v35.25c0,1.243,1.007,2.25,2.25,2.25h22.75v-2.802Z" fill="#2c67ff" stroke-width="0"/>
    <circle cx="77.18" cy="49.007" r="1.414" fill="#2c67ff" stroke-width="0"/>
    <path d="M76.113,44.624c-1.843.449-3.222,2.025-3.432,3.923-.206,1.864.827,3.686,2.622,4.557.021.01.043.018.055.018-.006.772-.003,1.545,0,2.317.005,1.226.01,2.451-.021,3.676-.03,1.2-.55,2.341-1.425,3.127-.837.754-1.906,1.112-3.005,1.033-1.206-.098-2.276-.652-3.014-1.564-.639-.79-.961-1.771-.928-2.8.343.007.678.013,1.009-.018.99-.094,1.721-.936,1.663-1.917-.058-.995-.826-1.729-1.827-1.747-.898-.015-1.795-.014-2.689,0-1.038.016-1.822.75-1.825,1.709l-.005.599c-.012,1.087-.023,2.211.207,3.294.776,3.633,3.977,6.139,7.653,6.139.313,0,.632-.019.951-.056,3.242-.379,5.831-2.745,6.647-5.812.17-.642.269-1.313.273-2.005.012-1.923.014-3.845-.008-5.767-.002-.2.003-.208.177-.293,2.07-1.011,3.036-3.402,2.247-5.562-.473-1.293-1.482-2.237-2.689-2.685-.821-.304-1.73-.385-2.638-.166ZM78.594,49.007c0,.779-.635,1.414-1.414,1.414s-1.414-.635-1.414-1.414.635-1.414,1.414-1.414,1.414.635,1.414,1.414Z" fill="#fff" stroke-width="0"/>
  </g>
</svg>