<?xml version="1.0" encoding="UTF-8"?>
<svg id="Spam_and_Scams" data-name="Spam and Scams" xmlns="http://www.w3.org/2000/svg" version="1.1" viewBox="0 0 100 100">
  <rect width="100" height="100" fill="#fd4af9" opacity="0" stroke-width="0"/>
  <g>
    <rect width="100" height="100" fill="#eb51f4" opacity="0" stroke-width="0"/>
    <g>
      <path d="M53.75,72.23v-35.25h25v-8.896H8.75v51.135c0,2.502,2.016,4.53,4.5,4.53h65.5v-9.27h-22.75c-1.243,0-2.25-1.007-2.25-2.25ZM38.794,55.071h-22.584v-6h22.584v6ZM46.252,43.018h-30.042v-6h30.042v6Z" fill="#051273" stroke-width="0"/>
      <path d="M78.746,28.085h.093v-7.335c0-1.86-1.125-3.464-2.745-4.14-.541-.24-1.125-.36-1.755-.36H8.839v11.835h69.907ZM33.573,19.918c1.243,0,2.25,1.007,2.25,2.25s-1.007,2.25-2.25,2.25-2.25-1.008-2.25-2.25,1.008-2.25,2.25-2.25ZM24.324,20.769c.413-.515,1.039-.851,1.749-.851.466,0,.899.142,1.258.384.599.404.992,1.089.992,1.866s-.397,1.467-1.001,1.871c-.357.24-.787.379-1.249.379-.709,0-1.333-.334-1.746-.847-.311-.386-.504-.87-.504-1.403s.193-1.014.501-1.399ZM17.559,20.158c.3-.149.633-.24.991-.24.89,0,1.65.52,2.016,1.268.146.298.234.628.234.982,0,.355-.089.687-.235.986-.366.746-1.127,1.264-2.015,1.264-.353,0-.683-.088-.98-.234-.749-.365-1.27-1.127-1.27-2.016s.517-1.644,1.259-2.01Z" fill="#63c6bb" stroke-width="0"/>
      <path d="M17.569,24.184c.297.146.628.234.98.234.888,0,1.648-.519,2.015-1.264.146-.299.235-.63.235-.986,0-.354-.088-.684-.234-.982-.365-.749-1.126-1.268-2.016-1.268-.357,0-.69.091-.991.24-.743.367-1.259,1.125-1.259,2.01s.521,1.65,1.27,2.016Z" fill="#051273" stroke-width="0"/>
      <path d="M26.073,24.418c.462,0,.892-.14,1.249-.379.604-.403,1.001-1.09,1.001-1.871s-.393-1.462-.992-1.866c-.359-.242-.792-.384-1.258-.384-.71,0-1.336.336-1.749.851-.308.385-.501.867-.501,1.399s.193,1.017.504,1.403c.413.513,1.037.847,1.746.847Z" fill="#051273" stroke-width="0"/>
      <circle cx="33.573" cy="22.168" r="2.25" fill="#051273" stroke-width="0"/>
      <path d="M78.969,56.67c0-.346-.082-.671-.219-.966v1.933c.137-.295.219-.621.219-.967Z" fill="#63c6bb" stroke-width="0"/>
      <path d="M88.85,36.98h-10.1v8.151c3.042,1.97,5.123,5.318,5.292,9.155.205,3.973-1.667,7.75-4.929,10.008-.05.036-.093.078-.144.111v1.982c0,.312-.084.599-.219.855v7.239h12.5v-35.1c0-1.326-1.075-2.4-2.4-2.4Z" fill="#63c6bb" stroke-width="0"/>
      <path d="M78.75,71.678v-4.437c-.31.587-.92.989-1.625.989h-.929c-.25,0-.458-.208-.458-.458v-2.745c0-.499-.375-.915-.874-.956-.513-.028-.942.361-.984.859v2.828c0,.25-.208.457-.458.457h-1.843c-.25,0-.458-.208-.458-.457v-2.745c0-.498-.375-.915-.874-.957-.513-.028-.942.36-.984.859v2.828c0,.251-.208.458-.458.458h-.929c-1.026,0-1.844-.831-1.844-1.844v-1.982c-5.295-3.575-6.681-10.756-3.119-16.05,2.246-3.314,6.043-5.241,10.036-5.088l-.014.028c.567.022,1.12.097,1.663.198,1.503.28,2.903.861,4.147,1.667v-8.151h-25v35.25c0,1.243,1.007,2.25,2.25,2.25h22.75v-2.802Z" fill="#2c67ff" stroke-width="0"/>
      <path d="M68.323,54.355c-1.275,0-2.314,1.04-2.314,2.314s1.04,2.303,2.314,2.315c1.275,0,2.315-1.04,2.315-2.315s-1.04-2.314-2.315-2.314Z" fill="#2c67ff" stroke-width="0"/>
      <path d="M74.339,56.67c0,.38.101.732.263,1.047.384.744,1.156,1.258,2.051,1.268.93,0,1.729-.555,2.096-1.348v-1.933c-.368-.793-1.167-1.348-2.096-1.348-.895,0-1.667.52-2.051,1.267-.162.316-.263.67-.263,1.048Z" fill="#2c67ff" stroke-width="0"/>
      <path d="M72.939,43.266l.014-.028c-3.992-.152-7.79,1.774-10.036,5.088-3.562,5.293-2.176,12.475,3.119,16.05v1.982c0,1.013.818,1.844,1.844,1.844h.929c.25,0,.458-.207.458-.458v-2.828c.042-.499.471-.887.984-.859.499.042.874.459.874.957v2.745c0,.25.208.457.458.457h1.843c.25,0,.458-.208.458-.457v-2.828c.042-.498.471-.887.984-.859.499.042.874.457.874.956v2.745c0,.25.208.458.458.458h.929c.705,0,1.315-.401,1.625-.989.135-.256.219-.543.219-.855v-1.982c.051-.033.094-.075.144-.111,3.262-2.258,5.134-6.035,4.929-10.008-.169-3.837-2.25-7.185-5.292-9.155-1.244-.806-2.645-1.387-4.147-1.667-.543-.102-1.096-.176-1.663-.198ZM68.323,58.985c-1.275-.012-2.314-1.04-2.314-2.315s1.04-2.314,2.314-2.314,2.315,1.04,2.315,2.314-1.04,2.315-2.315,2.315ZM76.654,54.355c.93,0,1.729.555,2.096,1.348.137.295.219.621.219.966s-.082.672-.219.967c-.368.793-1.167,1.348-2.096,1.348-.895-.01-1.667-.524-2.051-1.268-.162-.315-.263-.667-.263-1.047,0-.378.101-.731.263-1.048.384-.747,1.156-1.267,2.051-1.267Z" fill="#fff" stroke-width="0"/>
      <rect x="16.21" y="37.018" width="30.042" height="6" fill="#2c67ff" stroke-width="0"/>
      <rect x="16.21" y="49.071" width="22.584" height="6" fill="#2c67ff" stroke-width="0"/>
    </g>
  </g>
</svg>