<?xml version="1.0" encoding="utf-8"?>
<!-- Generator: Adobe Illustrator 27.7.0, SVG Export Plug-In . SVG Version: 6.00 Build 0)  -->
<svg version="1.1" id="Layer_1" xmlns="http://www.w3.org/2000/svg" xmlns:xlink="http://www.w3.org/1999/xlink" x="0px" y="0px"
	 viewBox="0 0 102.6 102.9" style="enable-background:new 0 0 102.6 102.9;" xml:space="preserve">
<style type="text/css">
	.st0{fill:#962DD4;}
	.st1{fill:#FFFFFF;}
</style>
<g>
	<g>
		<g>
			<g>
				<g>
					<path d="M17.6,100.2c-8.3,0-15-6.7-15-15v-68c0-8.3,6.7-15,15-15h68c8.3,0,15,6.7,15,15v68c0,8.3-6.7,15-15,15H17.6z"/>
					<path class="st0" d="M85.6,3.2c7.7,0,14,6.3,14,14v68c0,7.7-6.3,14-14,14h-68c-7.7,0-14-6.3-14-14v-68c0-7.7,6.3-14,14-14H85.6
						 M85.6,1.2h-68c-8.8,0-16,7.2-16,16v68c0,8.8,7.2,16,16,16h68c8.8,0,16-7.2,16-16v-68C101.6,8.4,94.4,1.2,85.6,1.2L85.6,1.2z"
						/>
				</g>
			</g>
		</g>
	</g>
	<g>
		<g>
			<circle class="st1" cx="55.1" cy="33.2" r="17.4"/>
			<g>
				<g>
					<circle cx="55" cy="26.5" r="5.3"/>
				</g>
			</g>
			<path d="M64.9,40.9c-1.6-3.8-5.4-6.4-9.8-6.4c0,0,0,0-0.1,0c0,0,0,0-0.1,0c-4.4,0-8.1,2.6-9.8,6.4c-0.3,0.7-0.6,1.6-0.5,2.5
				c2.6,2.7,6.3,4.4,10.4,4.4s7.7-1.7,10.4-4.4C65.5,42.5,65.2,41.6,64.9,40.9z"/>
		</g>
		<g>
			<g>
				<path d="M39.9,55.3c-0.4,0-0.7-0.1-1-0.2c-0.3,0.1-0.6,0.2-1,0.2h-1.3c-0.4,0-0.7-0.1-1-0.2c-0.3,0.1-0.6,0.2-1,0.2h-0.7
					c-1.9,0-3.5-1.6-3.5-3.5v-0.4c-4-3.4-4.9-9.4-1.9-13.8c2-2.9,5.2-4.6,8.7-4.6c0.1,0,0.3,0,0.4,0c5.4,0.2,9.8,4.6,10.1,10
					c0.2,3.2-1.2,6.4-3.7,8.4v0.4c0,1.9-1.6,3.5-3.5,3.5H39.9z"/>
				<path class="st1" d="M37.5,35.2c4.3,0.2,7.8,3.6,8,8c0.1,2.9-1.2,5.7-3.7,7.3v1.4c0,0.7-0.6,1.3-1.3,1.3h-0.7
					c-0.2,0-0.3-0.1-0.3-0.3v-2c0-0.4-0.3-0.7-0.6-0.7c-0.4,0-0.7,0.3-0.7,0.6c0,0,0,0,0,0v2c0,0.2-0.1,0.3-0.3,0.3h-1.3
					c-0.2,0-0.3-0.1-0.3-0.3v-2c0-0.4-0.3-0.7-0.6-0.7c-0.4,0-0.7,0.3-0.7,0.6c0,0,0,0,0,0v2c0,0.2-0.1,0.3-0.3,0.3h-0.7
					c-0.7,0-1.3-0.6-1.3-1.3v-1.4c-3.8-2.6-4.8-7.8-2.2-11.6C31.9,36.4,34.6,35.1,37.5,35.2z M40.2,46.5c0.9,0,1.7-0.7,1.7-1.7
					c0-0.9-0.7-1.7-1.7-1.7c-0.9,0-1.7,0.7-1.7,1.7C38.5,45.8,39.3,46.5,40.2,46.5z M34.2,46.5c0.9,0,1.7-0.7,1.7-1.7
					c0-0.9-0.7-1.7-1.7-1.7c-0.9,0-1.7,0.7-1.7,1.7C32.5,45.8,33.3,46.5,34.2,46.5z"/>
			</g>
		</g>
	</g>
</g>
<g>
	<path class="st1" d="M24.4,73.2h-1.6l2.5-7.3h2l2.5,7.3h-1.6l-1.8-5.6h-0.1L24.4,73.2z M24.3,70.3h3.9v1.2h-3.9V70.3z"/>
	<path class="st1" d="M37.8,68.4h-1.6c0-0.2-0.1-0.4-0.2-0.5c-0.1-0.2-0.2-0.3-0.3-0.4c-0.1-0.1-0.3-0.2-0.5-0.3
		c-0.2-0.1-0.4-0.1-0.6-0.1c-0.4,0-0.7,0.1-1,0.3c-0.3,0.2-0.5,0.5-0.7,0.8c-0.2,0.4-0.2,0.8-0.2,1.3c0,0.5,0.1,1,0.2,1.3
		c0.2,0.4,0.4,0.6,0.7,0.8s0.6,0.3,1,0.3c0.2,0,0.4,0,0.6-0.1c0.2-0.1,0.3-0.1,0.5-0.2s0.3-0.2,0.3-0.4s0.2-0.3,0.2-0.5l1.6,0
		c0,0.3-0.1,0.7-0.3,1s-0.4,0.6-0.6,0.8c-0.3,0.2-0.6,0.4-1,0.6c-0.4,0.1-0.8,0.2-1.3,0.2c-0.6,0-1.2-0.1-1.7-0.4
		c-0.5-0.3-0.9-0.7-1.2-1.3c-0.3-0.6-0.4-1.2-0.4-2c0-0.8,0.1-1.5,0.4-2c0.3-0.6,0.7-1,1.2-1.3c0.5-0.3,1.1-0.4,1.7-0.4
		c0.4,0,0.8,0.1,1.2,0.2c0.4,0.1,0.7,0.3,1,0.5s0.5,0.5,0.7,0.8C37.7,67.7,37.8,68,37.8,68.4z"/>
	<path class="st1" d="M46.4,68.4h-1.6c0-0.2-0.1-0.4-0.2-0.5c-0.1-0.2-0.2-0.3-0.3-0.4c-0.1-0.1-0.3-0.2-0.5-0.3
		c-0.2-0.1-0.4-0.1-0.6-0.1c-0.4,0-0.7,0.1-1,0.3c-0.3,0.2-0.5,0.5-0.7,0.8c-0.2,0.4-0.2,0.8-0.2,1.3c0,0.5,0.1,1,0.2,1.3
		c0.2,0.4,0.4,0.6,0.7,0.8s0.6,0.3,1,0.3c0.2,0,0.4,0,0.6-0.1c0.2-0.1,0.3-0.1,0.5-0.2s0.3-0.2,0.3-0.4s0.2-0.3,0.2-0.5l1.6,0
		c0,0.3-0.1,0.7-0.3,1s-0.4,0.6-0.6,0.8c-0.3,0.2-0.6,0.4-1,0.6c-0.4,0.1-0.8,0.2-1.3,0.2c-0.6,0-1.2-0.1-1.7-0.4
		c-0.5-0.3-0.9-0.7-1.2-1.3s-0.4-1.2-0.4-2c0-0.8,0.1-1.5,0.4-2c0.3-0.6,0.7-1,1.2-1.3c0.5-0.3,1.1-0.4,1.7-0.4
		c0.4,0,0.8,0.1,1.2,0.2c0.4,0.1,0.7,0.3,1,0.5s0.5,0.5,0.7,0.8C46.3,67.7,46.4,68,46.4,68.4z"/>
	<path class="st1" d="M55.3,69.5c0,0.8-0.1,1.5-0.4,2s-0.7,1-1.2,1.3c-0.5,0.3-1.1,0.4-1.7,0.4c-0.6,0-1.2-0.1-1.7-0.4
		c-0.5-0.3-0.9-0.7-1.2-1.3c-0.3-0.6-0.4-1.2-0.4-2c0-0.8,0.1-1.5,0.4-2c0.3-0.6,0.7-1,1.2-1.3c0.5-0.3,1.1-0.4,1.7-0.4
		c0.6,0,1.2,0.1,1.7,0.4c0.5,0.3,0.9,0.7,1.2,1.3S55.3,68.7,55.3,69.5z M53.7,69.5c0-0.5-0.1-0.9-0.2-1.3s-0.4-0.6-0.6-0.8
		s-0.6-0.3-1-0.3c-0.4,0-0.7,0.1-1,0.3c-0.3,0.2-0.5,0.4-0.6,0.8C50.1,68.6,50,69,50,69.5s0.1,0.9,0.2,1.3c0.2,0.4,0.4,0.6,0.6,0.8
		c0.3,0.2,0.6,0.3,1,0.3c0.4,0,0.7-0.1,1-0.3c0.3-0.2,0.5-0.4,0.6-0.8S53.7,70,53.7,69.5z"/>
	<path class="st1" d="M62.1,65.9h1.5v4.7c0,0.5-0.1,1-0.4,1.4c-0.3,0.4-0.6,0.7-1.1,0.9s-1,0.3-1.6,0.3c-0.6,0-1.1-0.1-1.6-0.3
		s-0.8-0.5-1.1-0.9c-0.3-0.4-0.4-0.9-0.4-1.4v-4.7h1.5v4.6c0,0.3,0.1,0.5,0.2,0.7c0.1,0.2,0.3,0.4,0.5,0.5s0.5,0.2,0.8,0.2
		c0.3,0,0.6-0.1,0.8-0.2c0.2-0.1,0.4-0.3,0.5-0.5c0.1-0.2,0.2-0.5,0.2-0.7V65.9z"/>
	<path class="st1" d="M72.2,65.9v7.3h-1.3l-3.2-4.6h-0.1v4.6h-1.5v-7.3h1.3l3.1,4.6h0.1v-4.6H72.2z"/>
	<path class="st1" d="M74.3,67.2v-1.3h6v1.3h-2.2v6h-1.5v-6H74.3z"/>
	<path class="st1" d="M20.9,80.2v-1.3h6v1.3h-2.2v6h-1.5v-6H20.9z"/>
	<path class="st1" d="M29.5,86.2h-1.6l2.5-7.3h2l2.5,7.3h-1.6l-1.8-5.6h-0.1L29.5,86.2z M29.4,83.3h3.9v1.2h-3.9V83.3z"/>
	<path class="st1" d="M36.8,86.2v-7.3h1.5v3.2h0.1l2.6-3.2h1.8l-2.7,3.3l2.7,4h-1.8l-2-3l-0.8,0.9v2.1H36.8z"/>
	<path class="st1" d="M44.9,86.2v-7.3h4.9v1.3h-3.4v1.7h3.1v1.3h-3.1v1.7h3.4v1.3H44.9z"/>
	<path class="st1" d="M58.7,82.5c0,0.8-0.1,1.5-0.4,2s-0.7,1-1.2,1.3c-0.5,0.3-1.1,0.4-1.7,0.4c-0.6,0-1.2-0.1-1.7-0.4
		c-0.5-0.3-0.9-0.7-1.2-1.3c-0.3-0.6-0.4-1.2-0.4-2c0-0.8,0.1-1.5,0.4-2c0.3-0.6,0.7-1,1.2-1.3c0.5-0.3,1.1-0.4,1.7-0.4
		c0.6,0,1.2,0.1,1.7,0.4c0.5,0.3,0.9,0.7,1.2,1.3S58.7,81.7,58.7,82.5z M57.2,82.5c0-0.5-0.1-0.9-0.2-1.3s-0.4-0.6-0.6-0.8
		s-0.6-0.3-1-0.3c-0.4,0-0.7,0.1-1,0.3c-0.3,0.2-0.5,0.4-0.6,0.8c-0.2,0.4-0.2,0.8-0.2,1.3s0.1,0.9,0.2,1.3c0.2,0.4,0.4,0.6,0.6,0.8
		c0.3,0.2,0.6,0.3,1,0.3c0.4,0,0.7-0.1,1-0.3c0.3-0.2,0.5-0.4,0.6-0.8S57.2,83,57.2,82.5z"/>
	<path class="st1" d="M62,78.9l1.8,5.5h0.1l1.8-5.5h1.7l-2.5,7.3h-2l-2.5-7.3H62z"/>
	<path class="st1" d="M69.3,86.2v-7.3h4.9v1.3h-3.4v1.7H74v1.3h-3.1v1.7h3.4v1.3H69.3z"/>
	<path class="st1" d="M76.6,86.2v-7.3h2.9c0.5,0,1,0.1,1.4,0.3s0.7,0.5,0.9,0.8c0.2,0.4,0.3,0.8,0.3,1.3c0,0.5-0.1,0.9-0.3,1.2
		c-0.2,0.3-0.5,0.6-0.9,0.8c-0.4,0.2-0.9,0.3-1.4,0.3h-1.9v-1.2h1.7c0.3,0,0.5,0,0.7-0.1s0.3-0.2,0.4-0.4c0.1-0.2,0.1-0.4,0.1-0.6
		c0-0.2,0-0.4-0.1-0.6c-0.1-0.2-0.2-0.3-0.4-0.4c-0.2-0.1-0.4-0.1-0.7-0.1h-1v6H76.6z M80.6,82.9l1.8,3.3h-1.7l-1.8-3.3H80.6z"/>
</g>
</svg>
