<?xml version="1.0" encoding="UTF-8"?><svg id="Icon_art" xmlns="http://www.w3.org/2000/svg" viewBox="0 0 100 100"><defs><style>.cls-1{fill:none;}.cls-2{fill:#fff;}.cls-3{fill:#071871;}.cls-4{fill:#36cbbd;}.cls-5{fill:#316cff;}.cls-6{fill:#ff4afb;opacity:0;}</style></defs><rect class="cls-6" width="100" height="100"/><g><path class="cls-1" d="M75.53,52.51c-1.27,.39-2.61,.62-4.01,.62,1.4,0,2.74-.23,4.01-.62Z"/><path class="cls-1" d="M29.49,51.12c-2.08,1.28-4.53,2.02-7.15,2.02,2.62,0,5.07-.74,7.15-2.02Z"/><path class="cls-3" d="M15.97,43.01v-4.07h59.39c1.4,0,2.53,1.12,2.53,2.5,0,0,0,0,0,0v10.13s0,0,.01,0h0c4.29-2.25,7.21-6.71,7.22-11.83,0-.51-.02-1.02-.08-1.54-.05-.35-.12-.7-.19-1.04-.04-.17-.05-.35-.1-.52h.03l-5.51-20.37H14.6l-5.51,20.37h.03c-.04,.17-.06,.35-.1,.52-.07,.35-.15,.69-.19,1.04-.05,.48-.07,.95-.08,1.42-.04,5.17,2.89,9.68,7.22,11.95h0v-8.56Z"/><path class="cls-5" d="M17.69,52.31c1.46,.53,3.02,.83,4.65,.83,2.62,0,5.07-.74,7.15-2.02,.33-.2,.66-.42,.97-.65,1.36-1.01,2.52-2.26,3.42-3.69,.09-.14,.21-.24,.34-.31,.2-.1,.42-.1,.63-.05,.21,.05,.41,.16,.55,.37,.43,.69,.93,1.33,1.47,1.92,.02,.03,.04,.06,.07,.08,.34,.36,.7,.7,1.07,1.02,1.53,1.33,3.37,2.33,5.4,2.86,1.13,.3,2.31,.46,3.54,.46,3.11,0,5.96-1.04,8.25-2.77,1.3-.99,2.42-2.19,3.28-3.57,.04-.06,.1-.09,.15-.14,.3-.29,.72-.34,1.06-.13,.11,.07,.22,.15,.3,.28,1.35,2.14,3.29,3.88,5.59,4.99,1.79,.87,3.81,1.35,5.94,1.35,1.4,0,2.74-.23,4.01-.62,.69-.21,1.36-.47,2.01-.79,.12-.06,.24-.1,.35-.16h0v-10.13s0,0,0,0c0-1.38-1.13-2.5-2.53-2.5H15.97v12.62h0c.41,.22,.83,.4,1.25,.58,.15,.06,.31,.12,.47,.18Z"/><path class="cls-2" d="M62.88,63.17v-3.99c0-1.38-1.13-2.5-2.53-2.5h-8.69c-1.4,0-2.53,1.12-2.53,2.5v24.57h13.76v-20.58Z"/><path class="cls-4" d="M68.98,56.68h8.91v-5.11c-.11,.06-.24,.1-.35,.16-.64,.32-1.31,.58-2.01,.79-1.27,.39-2.61,.62-4.01,.62-2.13,0-4.15-.49-5.94-1.35-2.31-1.11-4.24-2.85-5.59-4.99-.08-.12-.19-.21-.3-.28-.34-.21-.77-.15-1.06,.13-.05,.05-.11,.08-.15,.14-.87,1.38-1.98,2.59-3.28,3.57-2.29,1.73-5.14,2.77-8.25,2.77-1.22,0-2.41-.16-3.54-.46-2.03-.53-3.87-1.53-5.4-2.86-.37-.32-.73-.66-1.07-1.02-.02-.03-.04-.05-.07-.08-.54-.6-1.04-1.24-1.47-1.92-.13-.21-.34-.31-.55-.37-.21-.05-.43-.05-.63,.05-.13,.07-.25,.17-.34,.31-.9,1.43-2.06,2.68-3.42,3.69-.31,.23-.64,.44-.97,.65-2.08,1.28-4.53,2.02-7.15,2.02-1.63,0-3.19-.3-4.65-.83-.16-.06-.31-.12-.47-.18-.43-.17-.85-.35-1.25-.57v27.69c0,2.49,2.04,4.5,4.56,4.5h10.47v-24.57c0-1.38,1.13-2.5,2.53-2.5h8.69c1.4,0,2.53,1.12,2.53,2.5v2.83h0v21.74h4.36v-24.57c0-1.38,1.13-2.5,2.53-2.5h8.69c1.4,0,2.53,1.12,2.53,2.5v24.57h6.1v-27.07Z"/><path class="cls-2" d="M44.76,62.01v-2.83c0-1.38-1.13-2.5-2.53-2.5h-8.69c-1.4,0-2.53,1.12-2.53,2.5v24.57h13.76v-21.74h0Z"/><path class="cls-3" d="M88.72,56.68h-10.83v9.34c.65,.4,1.41,.64,2.23,.64,2.31,0,4.19-1.85,4.19-4.12,0-.75,.6-1.35,1.35-1.35s1.35,.6,1.35,1.35c0,3.76-3.09,6.82-6.89,6.82-.78,0-1.53-.14-2.23-.37v14.76h13.36v-24.57c0-1.38-1.13-2.5-2.53-2.5Z"/><path class="cls-5" d="M73.23,62.54v-.14c0-.75,.61-1.31,1.35-1.31s1.35,.65,1.35,1.39c0,.04,0,.1,0,.14,0,1.41,.79,2.67,1.97,3.4v-9.34h0s-7.04,0-7.04,0h-1.87v27.07h8.91v-14.76c-2.71-.92-4.66-3.46-4.66-6.45Z"/><path class="cls-2" d="M75.93,62.62s0-.1,0-.14c0-.75-.6-1.39-1.35-1.39s-1.35,.56-1.35,1.31v.14c0,2.99,1.95,5.53,4.66,6.45,.7,.24,1.45,.37,2.23,.37,3.8,0,6.89-3.06,6.89-6.82,0-.75-.6-1.35-1.35-1.35s-1.35,.6-1.35,1.35c0,2.27-1.88,4.12-4.19,4.12-.82,0-1.58-.24-2.23-.64-1.18-.72-1.96-1.99-1.97-3.4Z"/></g></svg>