<?xml version="1.0" encoding="UTF-8"?><svg id="Icon_art" xmlns="http://www.w3.org/2000/svg" viewBox="0 0 100 100"><defs><style>.cls-1{fill:none;}.cls-2{fill:#fff;}.cls-3{fill:#071871;}.cls-4{fill:#36cbbd;}.cls-5{fill:#316cff;}.cls-6{fill:#ff4afb;opacity:0;}</style></defs><rect class="cls-6" width="100" height="100"/><g><path class="cls-1" d="M34.25,16.25c.12,.77,.3,1.51,.53,2.22-.24-.71-.42-1.46-.53-2.22Z"/><path class="cls-1" d="M47.93,26.92c3.04-.44,5.71-2.05,7.6-4.4-1.89,2.35-4.56,3.96-7.6,4.4Z"/><path class="cls-4" d="M35.18,19.52c.29,.68,.64,1.33,1.04,1.95,.6,.92,1.3,1.75,2.1,2.48,2.13,1.94,4.9,3.1,7.93,3.1,.57,0,1.12-.05,1.67-.13,3.04-.44,5.71-2.05,7.6-4.4,.27-.33,.52-.69,.76-1.05,.4-.61,.75-1.26,1.04-1.95,.44-1.02,.75-2.12,.93-3.27h-24c.12,.77,.3,1.51,.53,2.22,.12,.36,.25,.71,.4,1.05Z"/><path class="cls-3" d="M53.75,81.2V46.25h14.19v-8.04l11.54,3,4.27-18.46-15.81-6.5h-9.69c-.17,1.15-.49,2.24-.93,3.27-.29,.68-.64,1.33-1.04,1.95-.24,.36-.49,.71-.76,1.05-1.89,2.35-4.56,3.96-7.6,4.4-.55,.08-1.1,.13-1.67,.13-3.03,0-5.8-1.17-7.93-3.1-.8-.73-1.51-1.56-2.1-2.48-.4-.61-.75-1.26-1.04-1.95-.15-.34-.28-.69-.4-1.05-.24-.71-.42-1.46-.53-2.22h-9.67l-15.83,6.5,4.27,18.46,11.55-3v41.02c0,2.48,2.01,4.5,4.5,4.5l11.99,.02h15.15c-1.36-.06-2.45-1.17-2.45-2.55Z"/><path class="cls-4" d="M88.7,46.25h-20.76v11.38h13.33c.3,0,.58,.13,.77,.36,.19,.23,.27,.53,.22,.82l-1.21,6.66c-.22,1.23-1.29,2.13-2.54,2.13h-10.55v1.98h10.14c1.65,0,2.99,1.34,2.99,2.99s-1.34,2.99-2.99,2.99-2.99-1.34-2.99-2.99c0-.35,.07-.68,.18-.99h-4.74c.11,.31,.18,.64,.18,.99,0,1.57-1.23,2.85-2.77,2.97v3.71s-.01,.08-.01,.12v4.35h-4.16s-.05,0-.07,0h-7.49s.06,.01,.1,.01h34.95V48.8c0-1.41-1.14-2.55-2.55-2.55Z"/><path class="cls-5" d="M63.69,83.74s.05,0,.07,0h4.16v-4.35s.01-.08,.01-.12v-3.71c-.07,0-.14,.02-.22,.02-1.65,0-2.99-1.34-2.99-2.99,0-.85,.36-1.61,.93-2.16l-2.69-14.77h-1.63c-.55,0-1-.45-1-1s.45-1,1-1h1.8c.87,0,1.61,.63,1.76,1.48l.46,2.5h2.58v-11.38h-14.19v34.95c0,1.38,1.09,2.49,2.45,2.54h7.48s.01,0,.01,0Z"/><polygon class="cls-5" points="67.54 69.58 67.72 69.58 67.94 69.58 67.94 67.59 67.18 67.59 67.54 69.58"/><path class="cls-2" d="M64.91,55.12c-.15-.85-.89-1.47-1.76-1.48h-1.8c-.55,0-1,.45-1,1s.45,1,1,1h1.63l2.69,14.77c-.57,.54-.93,1.31-.93,2.16,0,1.65,1.34,2.99,2.99,2.99,.08,0,.15-.02,.22-.02,1.55-.11,2.77-1.4,2.77-2.97,0-.35-.07-.68-.18-.99h4.74c-.11,.31-.18,.64-.18,.99,0,1.65,1.34,2.99,2.99,2.99s2.99-1.34,2.99-2.99-1.34-2.99-2.99-2.99h-10.54l-.36-1.98h11.31c1.25,0,2.32-.89,2.54-2.13l1.21-6.66c.05-.29-.03-.59-.22-.82-.19-.23-.47-.36-.77-.36h-15.9l-.46-2.5Z"/></g></svg>