<?xml version="1.0" encoding="utf-8"?>
<!-- Generator: Adobe Illustrator 27.1.1, SVG Export Plug-In . SVG Version: 6.00 Build 0)  -->
<svg version="1.1" id="Layer_1" xmlns="http://www.w3.org/2000/svg" xmlns:xlink="http://www.w3.org/1999/xlink" x="0px" y="0px"
	 viewBox="0 0 100 100" enable-background="new 0 0 100 100" xml:space="preserve">
<g>
	<rect opacity="0" fill="#0D6EFF" width="100" height="100"/>
	<g>
		<path fill="#021876" d="M23.594,70.99c0.01,0,0.01,0.01,0.021,0.01c3.33,0,6.03-2.729,5.995-6.075
			c-0.012-1.116-0.327-2.3-1.025-3.475c-0.04-0.05-0.08-0.1-0.11-0.16c-0.97-1.48-2.65-2.34-4.41-2.31c-0.15,0-0.3,0-0.45,0.02
			h-0.021V46.25h0.47h4.06h2.06h5.81h2.02h9.17h2.01h5.81h2.06h4.06h0.28v-25.5c0-2.485-2.015-4.5-4.5-4.5h-36
			c-2.485,0-4.5,2.015-4.5,4.5v52.941h7.19V70.99z"/>
		<path fill="#00C5B4" d="M16.404,73.691v5.559c0,2.486,2.015,4.5,4.5,4.5h2.69V73.691H16.404z"/>
		<path fill="#00C5B4" d="M83.596,59V46.245h-19.5v0.004h-2.692v7.5v19.941v2.559v3c0,2.486-2.015,4.5-4.5,4.5h12.19v-0.004h14.502
			V70.991c-3.292-0.025-5.955-2.698-5.955-5.996C77.642,61.697,80.304,59.025,83.596,59z"/>
		<path fill="#0D6EFF" d="M61.404,79.25v-3v-2.559V53.75v-7.5h-0.28h-4.06h-2.06h-5.81h-2.01h-9.17h-2.02h-5.81h-2.06h-4.06h-0.47
			V59h0.021c0.15-0.02,0.3-0.02,0.45-0.02c1.76-0.03,3.44,0.83,4.41,2.31c0.03,0.06,0.07,0.11,0.11,0.16
			c0.698,1.175,1.013,2.359,1.025,3.475C29.644,68.271,26.945,71,23.615,71c-0.01,0-0.01-0.01-0.021-0.01v2.701V83.75h25.279h8.031
			C59.39,83.75,61.404,81.736,61.404,79.25z M41.732,75.341h-6.125V54.658h6.125V75.341z M49.449,75.341h-4.717V54.658h4.717V75.341
			z M55.439,75.341h-3.653V54.658h3.653V75.341z"/>
		<rect x="35.607" y="54.658" fill="#FFFFFF" width="6.125" height="20.683"/>
		<rect x="44.732" y="54.658" fill="#FFFFFF" width="4.717" height="20.683"/>
		<rect x="51.786" y="54.658" fill="#FFFFFF" width="3.653" height="20.683"/>
	</g>
</g>
</svg>
